<?xml version="1.0" encoding="UTF-8" standalone="no"?>
<?xml-stylesheet href="common/css/sf.css" type="text/css"?>
<!DOCTYPE svg PUBLIC "-//W3C//DTD SVG 1.1//EN"
 "http://www.w3.org/Graphics/SVG/1.1/DTD/svg11.dtd">
<!-- Generated by graphviz version 9.0.0 (0)
 -->
<!-- Pages: 1 -->
<svg width="576pt" height="829pt"
 viewBox="0.00 21.60 576.00 807.62" xmlns="http://www.w3.org/2000/svg" xmlns:xlink="http://www.w3.org/1999/xlink">
<g id="graph0" class="graph deps" transform="scale(0.801893 0.801893) rotate(0) translate(4 1003.14)">
<polygon fill="white" stroke="none" points="-4,4 -4,-976.2 714.3,-976.2 714.3,4 -4,4"/>
<g id="clust1" class="cluster deps">
<title>cluster_Chargueraud</title>
<polygon fill="none" stroke="#595959" points="302.65,-73.2 302.65,-292.2 536.65,-292.2 536.65,-73.2 302.65,-73.2"/>
</g>
<!-- LogicalFoundations -->
<g id="node1" class="node">
<title>LogicalFoundations</title>
<g id="a_node1"><a xlink:title="Go to chapter" target="_top">
<polygon fill="none" stroke="black" stroke-dasharray="1,5" points="291.55,-946.1 125.75,-946.1 125.75,-910.1 291.55,-910.1 291.55,-946.1"/>
<text text-anchor="start" x="144.15" y="-924.4" font-family="Times,serif" font-size="11.00"> &#160;&#160;&#160;&#160;Logical Foundations &#160;&#160;&#160;&#160;&#160;&#160;&#160;</text>
</a>
</g>
</g>
<!-- Preface -->
<g id="node3" class="node">
<title>Preface</title>
<g id="a_node3"><a xlink:href="Preface.html" xlink:title="Go to chapter" target="_top">
<polygon fill="lightblue" stroke="black" points="240.3,-848 177,-848 177,-812 240.3,-812 240.3,-848"/>
<text text-anchor="middle" x="208.65" y="-826.3" font-family="Times,serif" font-size="11.00">Preface</text>
</a>
</g>
</g>
<!-- LogicalFoundations&#45;&gt;Preface -->
<g id="edge26" class="edge">
<title>LogicalFoundations&#45;&gt;Preface</title>
<path fill="none" stroke="gray" d="M203.33,-909.92C201.8,-895.93 201.5,-875.89 202.42,-859.5"/>
<polygon fill="gray" stroke="gray" points="205.89,-860.11 203.19,-849.86 198.91,-859.55 205.89,-860.11"/>
</g>
<!-- LogicalFoundations&#45;&gt;Preface -->
<g id="edge28" class="edge">
<title>LogicalFoundations&#45;&gt;Preface</title>
<path fill="none" stroke="blue" d="M213.97,-909.92C215.5,-895.93 215.8,-875.89 214.88,-859.5"/>
<polygon fill="blue" stroke="blue" points="218.39,-859.55 214.11,-849.86 211.41,-860.11 218.39,-859.55"/>
</g>
<!-- legend -->
<g id="node2" class="node">
<title>legend</title>
<g id="a_node2"><a xlink:title="Go to chapter" target="_top">
<polygon fill="WhiteSmoke" stroke="none" points="612.75,-972.2 406.55,-972.2 406.55,-884 612.75,-884 612.75,-972.2"/>
<polygon fill="lightblue" stroke="none" points="410.15,-935.6 410.15,-968.6 492.15,-968.6 492.15,-935.6 410.15,-935.6"/>
<polygon fill="none" stroke="#7f7f7f" points="410.15,-935.6 410.15,-968.6 492.15,-968.6 492.15,-935.6 410.15,-935.6"/>
<text text-anchor="start" x="421.15" y="-948.1" font-family="Times,serif" font-size="10.00"> Core chapters </text>
<polygon fill="lightyellow" stroke="none" points="502.15,-935.6 502.15,-968.6 609.15,-968.6 609.15,-935.6 502.15,-935.6"/>
<polygon fill="none" stroke="#7f7f7f" points="502.15,-935.6 502.15,-968.6 609.15,-968.6 609.15,-935.6 502.15,-935.6"/>
<text text-anchor="start" x="512.9" y="-948.1" font-family="Times,serif" font-size="10.00">Contributed chapters</text>
<text text-anchor="start" x="415.15" y="-918.1" font-family="Times,serif" font-size="10.00" fill="gray">⟶</text>
<text text-anchor="start" x="429.4" y="-918.1" font-family="Times,serif" font-size="10.00"> &#160;&#160;&#160;&#160;Chapter dependencies</text>
<text text-anchor="start" x="415.15" y="-896.1" font-family="Times,serif" font-size="10.00" fill="blue">⟶</text>
<text text-anchor="start" x="429.4" y="-896.1" font-family="Times,serif" font-size="10.00"> &#160;&#160;&#160;&#160;Recommended path for semester course</text>
</a>
</g>
</g>
<!-- Equiv -->
<g id="node6" class="node">
<title>Equiv</title>
<g id="a_node6"><a xlink:href="Equiv.html" xlink:title="Go to chapter" target="_top">
<polygon fill="lightblue" stroke="black" points="116.93,-776 4.38,-776 4.38,-730.8 116.93,-730.8 116.93,-776"/>
<text text-anchor="start" x="47.9" y="-757.95" font-family="Times,serif" font-size="11.00">Equiv</text>
<text text-anchor="start" x="22.78" y="-740.35" font-family="Times,serif" font-size="9.00">Program Equivalence</text>
</a>
</g>
</g>
<!-- Preface&#45;&gt;Equiv -->
<g id="edge24" class="edge">
<title>Preface&#45;&gt;Equiv</title>
<path fill="none" stroke="gray" d="M176.51,-815.49C156.48,-806.06 130.47,-793.15 108.13,-781.62"/>
<polygon fill="gray" stroke="gray" points="109.99,-778.64 99.5,-777.14 106.76,-784.86 109.99,-778.64"/>
</g>
<!-- Preface&#45;&gt;Equiv -->
<g id="edge29" class="edge">
<title>Preface&#45;&gt;Equiv</title>
<path fill="none" stroke="blue" d="M179.77,-811.51C162.94,-802.56 141.16,-791.46 120.8,-781.44"/>
<polygon fill="blue" stroke="blue" points="122.52,-778.38 112,-777.13 119.44,-784.67 122.52,-778.38"/>
</g>
<!-- Hoare -->
<g id="node7" class="node">
<title>Hoare</title>
<g id="a_node7"><a xlink:href="Hoare.html" xlink:title="Go to chapter" target="_top">
<polygon fill="lightblue" stroke="black" points="282.55,-776 134.75,-776 134.75,-730.8 282.55,-730.8 282.55,-776"/>
<text text-anchor="start" x="194.78" y="-757.95" font-family="Times,serif" font-size="11.00">Hoare</text>
<text text-anchor="start" x="153.15" y="-740.35" font-family="Times,serif" font-size="9.00">Hoare Logic (Part I, First Half)</text>
</a>
</g>
</g>
<!-- Preface&#45;&gt;Hoare -->
<g id="edge25" class="edge">
<title>Preface&#45;&gt;Hoare</title>
<path fill="none" stroke="gray" d="M208.65,-811.7C208.65,-804.56 208.65,-796.03 208.65,-787.77"/>
<polygon fill="gray" stroke="gray" points="212.15,-787.94 208.65,-777.94 205.15,-787.94 212.15,-787.94"/>
</g>
<!-- Smallstep -->
<g id="node12" class="node">
<title>Smallstep</title>
<g id="a_node12"><a xlink:href="Smallstep.html" xlink:title="Go to chapter" target="_top">
<polygon fill="lightblue" stroke="black" points="462.42,-776 304.88,-776 304.88,-730.8 462.42,-730.8 462.42,-776"/>
<text text-anchor="start" x="361.9" y="-757.95" font-family="Times,serif" font-size="11.00">Smallstep</text>
<text text-anchor="start" x="323.27" y="-740.35" font-family="Times,serif" font-size="9.00">Small&#45;Step Operational Semantics</text>
</a>
</g>
</g>
<!-- Preface&#45;&gt;Smallstep -->
<g id="edge23" class="edge">
<title>Preface&#45;&gt;Smallstep</title>
<path fill="none" stroke="gray" d="M240.75,-815.32C263.32,-805.69 294.25,-792.51 321.57,-780.87"/>
<polygon fill="gray" stroke="gray" points="322.61,-784.22 330.44,-777.08 319.87,-777.78 322.61,-784.22"/>
</g>
<!-- Postscript -->
<g id="node4" class="node">
<title>Postscript</title>
<g id="a_node4"><a xlink:href="Postscript.html" xlink:title="Go to chapter" target="_top">
<polygon fill="lightblue" stroke="black" points="242.8,-121.8 170.5,-121.8 170.5,-85.8 242.8,-85.8 242.8,-121.8"/>
<text text-anchor="middle" x="206.65" y="-100.1" font-family="Times,serif" font-size="11.00">Postscript</text>
</a>
</g>
</g>
<!-- Bib -->
<g id="node5" class="node">
<title>Bib</title>
<g id="a_node5"><a xlink:href="Bib.html" xlink:title="Go to chapter" target="_top">
<polygon fill="lightblue" stroke="black" points="248.3,-45.2 165,-45.2 165,0 248.3,0 248.3,-45.2"/>
<text text-anchor="start" x="198.78" y="-27.15" font-family="Times,serif" font-size="11.00">Bib</text>
<text text-anchor="start" x="183.4" y="-9.55" font-family="Times,serif" font-size="9.00">Bibliography</text>
</a>
</g>
</g>
<!-- Postscript&#45;&gt;Bib -->
<g id="edge27" class="edge">
<title>Postscript&#45;&gt;Bib</title>
<path fill="none" stroke="gray" d="M206.65,-85.61C206.65,-77.18 206.65,-66.72 206.65,-56.81"/>
<polygon fill="gray" stroke="gray" points="210.15,-57.09 206.65,-47.09 203.15,-57.09 210.15,-57.09"/>
</g>
<!-- Equiv&#45;&gt;Hoare -->
<g id="edge30" class="edge">
<title>Equiv&#45;&gt;Hoare</title>
<path fill="none" stroke="blue" d="M117.31,-753.4C119.18,-753.4 121.05,-753.4 122.93,-753.4"/>
<polygon fill="blue" stroke="blue" points="122.92,-756.9 132.92,-753.4 122.92,-749.9 122.92,-756.9"/>
</g>
<!-- PE -->
<g id="node22" class="node">
<title>PE</title>
<g id="a_node22"><a xlink:href="PE.html" xlink:title="Go to chapter" target="_top">
<polygon fill="lightyellow" stroke="black" points="110.18,-694.8 11.13,-694.8 11.13,-649.6 110.18,-649.6 110.18,-694.8"/>
<text text-anchor="start" x="54.28" y="-676.75" font-family="Times,serif" font-size="11.00">PE</text>
<text text-anchor="start" x="29.53" y="-659.15" font-family="Times,serif" font-size="9.00">Partial Evaluation</text>
</a>
</g>
</g>
<!-- Equiv&#45;&gt;PE -->
<g id="edge22" class="edge">
<title>Equiv&#45;&gt;PE</title>
<path fill="none" stroke="gray" d="M60.65,-730.34C60.65,-722.96 60.65,-714.56 60.65,-706.51"/>
<polygon fill="gray" stroke="gray" points="64.15,-706.66 60.65,-696.66 57.15,-706.66 64.15,-706.66"/>
</g>
<!-- Hoare1 -->
<g id="node8" class="node">
<title>Hoare1</title>
<g id="a_node8"><a xlink:href="Hoare1.html" xlink:title="Go to chapter" target="_top">
<polygon fill="lightblue" stroke="black" points="287.43,-694.8 129.88,-694.8 129.88,-649.6 287.43,-649.6 287.43,-694.8"/>
<text text-anchor="start" x="192.15" y="-676.75" font-family="Times,serif" font-size="11.00">Hoare1</text>
<text text-anchor="start" x="148.28" y="-659.15" font-family="Times,serif" font-size="9.00">Hoare Logic (Part I, Second Half)</text>
</a>
</g>
</g>
<!-- Hoare&#45;&gt;Hoare1 -->
<g id="edge1" class="edge">
<title>Hoare&#45;&gt;Hoare1</title>
<path fill="none" stroke="gray" d="M202.53,-730.34C201.96,-722.96 201.78,-714.56 201.98,-706.51"/>
<polygon fill="gray" stroke="gray" points="205.47,-706.81 202.46,-696.66 198.47,-706.47 205.47,-706.81"/>
</g>
<!-- Hoare&#45;&gt;Hoare1 -->
<g id="edge31" class="edge">
<title>Hoare&#45;&gt;Hoare1</title>
<path fill="none" stroke="blue" d="M214.77,-730.34C215.34,-722.96 215.52,-714.56 215.32,-706.51"/>
<polygon fill="blue" stroke="blue" points="218.83,-706.47 214.84,-696.66 211.83,-706.81 218.83,-706.47"/>
</g>
<!-- Hoare2 -->
<g id="node9" class="node">
<title>Hoare2</title>
<g id="a_node9"><a xlink:href="Hoare2.html" xlink:title="Go to chapter" target="_top">
<polygon fill="lightblue" stroke="black" points="288.05,-613.6 137.25,-613.6 137.25,-568.4 288.05,-568.4 288.05,-613.6"/>
<text text-anchor="start" x="196.15" y="-595.55" font-family="Times,serif" font-size="11.00">Hoare2</text>
<text text-anchor="start" x="155.65" y="-577.95" font-family="Times,serif" font-size="9.00">Hoare Logic (Part II, First Half)</text>
</a>
</g>
</g>
<!-- Hoare1&#45;&gt;Hoare2 -->
<g id="edge2" class="edge">
<title>Hoare1&#45;&gt;Hoare2</title>
<path fill="none" stroke="gray" d="M203.64,-649.14C203.45,-641.76 203.69,-633.36 204.29,-625.31"/>
<polygon fill="gray" stroke="gray" points="207.77,-625.75 205.28,-615.45 200.8,-625.05 207.77,-625.75"/>
</g>
<!-- Hoare1&#45;&gt;Hoare2 -->
<g id="edge32" class="edge">
<title>Hoare1&#45;&gt;Hoare2</title>
<path fill="none" stroke="blue" d="M215.89,-649.14C216.82,-641.76 217.43,-633.36 217.64,-625.31"/>
<polygon fill="blue" stroke="blue" points="221.14,-625.46 217.65,-615.46 214.14,-625.45 221.14,-625.46"/>
</g>
<!-- HoareAsLogic -->
<g id="node11" class="node">
<title>HoareAsLogic</title>
<g id="a_node11"><a xlink:href="HoareAsLogic.html" xlink:title="Go to chapter" target="_top">
<polygon fill="lightblue" stroke="black" points="119.3,-613.6 0,-613.6 0,-568.4 119.3,-568.4 119.3,-613.6"/>
<text text-anchor="start" x="26.65" y="-595.55" font-family="Times,serif" font-size="11.00">HoareAsLogic</text>
<text text-anchor="start" x="18.4" y="-577.95" font-family="Times,serif" font-size="9.00">Hoare Logic as a Logic</text>
</a>
</g>
</g>
<!-- Hoare1&#45;&gt;HoareAsLogic -->
<g id="edge11" class="edge">
<title>Hoare1&#45;&gt;HoareAsLogic</title>
<path fill="none" stroke="gray" d="M167.15,-649.14C149.78,-639.91 129.42,-629.09 111.12,-619.36"/>
<polygon fill="gray" stroke="gray" points="113,-616.39 102.53,-614.79 109.71,-622.58 113,-616.39"/>
</g>
<!-- Hoare3 -->
<g id="node10" class="node">
<title>Hoare3</title>
<g id="a_node10"><a xlink:href="Hoare3.html" xlink:title="Go to chapter" target="_top">
<polygon fill="lightblue" stroke="black" points="292.93,-532.4 132.38,-532.4 132.38,-487.2 292.93,-487.2 292.93,-532.4"/>
<text text-anchor="start" x="196.15" y="-514.35" font-family="Times,serif" font-size="11.00">Hoare3</text>
<text text-anchor="start" x="150.78" y="-496.75" font-family="Times,serif" font-size="9.00">Hoare Logic (Part II, Second Half)</text>
</a>
</g>
</g>
<!-- Hoare2&#45;&gt;Hoare3 -->
<g id="edge3" class="edge">
<title>Hoare2&#45;&gt;Hoare3</title>
<path fill="none" stroke="gray" d="M206.53,-567.94C205.96,-560.56 205.78,-552.16 205.98,-544.11"/>
<polygon fill="gray" stroke="gray" points="209.47,-544.41 206.46,-534.26 202.47,-544.07 209.47,-544.41"/>
</g>
<!-- Hoare2&#45;&gt;Hoare3 -->
<g id="edge33" class="edge">
<title>Hoare2&#45;&gt;Hoare3</title>
<path fill="none" stroke="blue" d="M218.77,-567.94C219.34,-560.56 219.52,-552.16 219.32,-544.11"/>
<polygon fill="blue" stroke="blue" points="222.83,-544.07 218.84,-534.26 215.83,-544.41 222.83,-544.07"/>
</g>
<!-- Hoare3&#45;&gt;Smallstep -->
<g id="edge34" class="edge">
<title>Hoare3&#45;&gt;Smallstep</title>
<path fill="none" stroke="blue" d="M253.71,-532.8C268.62,-542.27 284.72,-554.4 296.65,-568.4 301.99,-574.66 345.61,-669.21 368.98,-720.26"/>
<polygon fill="blue" stroke="blue" points="365.67,-721.43 373.01,-729.07 372.04,-718.52 365.67,-721.43"/>
</g>
<!-- RelHoare -->
<g id="node24" class="node">
<title>RelHoare</title>
<g id="a_node24"><a xlink:href="RelHoare.html" xlink:title="Go to chapter" target="_top">
<polygon fill="lightyellow" stroke="black" points="271.93,-451.2 153.38,-451.2 153.38,-406 271.93,-406 271.93,-451.2"/>
<text text-anchor="start" x="190.9" y="-433.15" font-family="Times,serif" font-size="11.00">RelHoare</text>
<text text-anchor="start" x="171.78" y="-415.55" font-family="Times,serif" font-size="9.00">Relational Hoare Logic</text>
</a>
</g>
</g>
<!-- Hoare3&#45;&gt;RelHoare -->
<g id="edge4" class="edge">
<title>Hoare3&#45;&gt;RelHoare</title>
<path fill="none" stroke="gray" d="M212.65,-486.74C212.65,-479.36 212.65,-470.96 212.65,-462.91"/>
<polygon fill="gray" stroke="gray" points="216.15,-463.06 212.65,-453.06 209.15,-463.06 216.15,-463.06"/>
</g>
<!-- Types -->
<g id="node13" class="node">
<title>Types</title>
<g id="a_node13"><a xlink:href="Types.html" xlink:title="Go to chapter" target="_top">
<polygon fill="lightblue" stroke="black" points="454.17,-694.8 367.12,-694.8 367.12,-649.6 454.17,-649.6 454.17,-694.8"/>
<text text-anchor="start" x="397.52" y="-676.75" font-family="Times,serif" font-size="11.00">Types</text>
<text text-anchor="start" x="385.52" y="-659.15" font-family="Times,serif" font-size="9.00">Type Systems</text>
</a>
</g>
</g>
<!-- Smallstep&#45;&gt;Types -->
<g id="edge5" class="edge">
<title>Smallstep&#45;&gt;Types</title>
<path fill="none" stroke="gray" d="M385.05,-730.34C387.07,-722.7 389.87,-713.97 392.93,-705.67"/>
<polygon fill="gray" stroke="gray" points="396.11,-707.14 396.5,-696.55 389.59,-704.59 396.11,-707.14"/>
</g>
<!-- Smallstep&#45;&gt;Types -->
<g id="edge35" class="edge">
<title>Smallstep&#45;&gt;Types</title>
<path fill="none" stroke="blue" d="M397.29,-730.34C400.45,-722.79 403.56,-714.17 406.14,-705.95"/>
<polygon fill="blue" stroke="blue" points="409.43,-707.18 408.86,-696.6 402.71,-705.22 409.43,-707.18"/>
</g>
<!-- Stlc -->
<g id="node14" class="node">
<title>Stlc</title>
<g id="a_node14"><a xlink:href="Stlc.html" xlink:title="Go to chapter" target="_top">
<polygon fill="lightblue" stroke="black" points="710.3,-613.6 543,-613.6 543,-568.4 710.3,-568.4 710.3,-613.6"/>
<text text-anchor="start" x="618.02" y="-595.55" font-family="Times,serif" font-size="11.00">Stlc</text>
<text text-anchor="start" x="561.4" y="-577.95" font-family="Times,serif" font-size="9.00">The Simply Typed Lambda&#45;Calculus</text>
</a>
</g>
</g>
<!-- Types&#45;&gt;Stlc -->
<g id="edge6" class="edge">
<title>Types&#45;&gt;Stlc</title>
<path fill="none" stroke="gray" d="M454.42,-653.03C481.8,-642.61 517.75,-629.35 549.75,-617.86"/>
<polygon fill="gray" stroke="gray" points="550.77,-621.21 559.01,-614.55 548.41,-614.62 550.77,-621.21"/>
</g>
<!-- Types&#45;&gt;Stlc -->
<g id="edge36" class="edge">
<title>Types&#45;&gt;Stlc</title>
<path fill="none" stroke="blue" d="M454.58,-657.04C485.61,-646.19 527.59,-630.93 562.35,-617.92"/>
<polygon fill="blue" stroke="blue" points="563.34,-621.28 571.47,-614.49 560.87,-614.73 563.34,-621.28"/>
</g>
<!-- StaticIFC -->
<g id="node25" class="node">
<title>StaticIFC</title>
<g id="a_node25"><a xlink:href="StaticIFC.html" xlink:title="Go to chapter" target="_top">
<polygon fill="lightyellow" stroke="black" points="525.42,-613.6 343.88,-613.6 343.88,-568.4 525.42,-568.4 525.42,-613.6"/>
<text text-anchor="start" x="413.27" y="-595.55" font-family="Times,serif" font-size="11.00">StaticIFC</text>
<text text-anchor="start" x="362.27" y="-577.95" font-family="Times,serif" font-size="9.00">Information Flow Control Type Systems</text>
</a>
</g>
</g>
<!-- Types&#45;&gt;StaticIFC -->
<g id="edge10" class="edge">
<title>Types&#45;&gt;StaticIFC</title>
<path fill="none" stroke="gray" d="M417.34,-649.14C419.62,-641.59 422.24,-632.97 424.72,-624.75"/>
<polygon fill="gray" stroke="gray" points="428.01,-625.98 427.56,-615.39 421.31,-623.95 428.01,-625.98"/>
</g>
<!-- StlcProp -->
<g id="node15" class="node">
<title>StlcProp</title>
<g id="a_node15"><a xlink:href="StlcProp.html" xlink:title="Go to chapter" target="_top">
<polygon fill="lightblue" stroke="black" points="504.92,-532.4 398.38,-532.4 398.38,-487.2 504.92,-487.2 504.92,-532.4"/>
<text text-anchor="start" x="432.9" y="-514.35" font-family="Times,serif" font-size="11.00">StlcProp</text>
<text text-anchor="start" x="416.77" y="-496.75" font-family="Times,serif" font-size="9.00">Properties of STLC</text>
</a>
</g>
</g>
<!-- Stlc&#45;&gt;StlcProp -->
<g id="edge7" class="edge">
<title>Stlc&#45;&gt;StlcProp</title>
<path fill="none" stroke="gray" d="M571.78,-567.94C550.29,-558.54 525.76,-547.48 504.48,-537.62"/>
<polygon fill="gray" stroke="gray" points="506.23,-534.57 495.69,-533.52 503.27,-540.92 506.23,-534.57"/>
</g>
<!-- Stlc&#45;&gt;StlcProp -->
<g id="edge37" class="edge">
<title>Stlc&#45;&gt;StlcProp</title>
<path fill="none" stroke="blue" d="M584.03,-567.94C563.45,-558.29 538.38,-546.91 515.6,-536.85"/>
<polygon fill="blue" stroke="blue" points="517.26,-533.76 506.7,-532.94 514.45,-540.17 517.26,-533.76"/>
</g>
<!-- Typechecking -->
<g id="node17" class="node">
<title>Typechecking</title>
<g id="a_node17"><a xlink:href="Typechecking.html" xlink:title="Go to chapter" target="_top">
<polygon fill="lightblue" stroke="black" points="705.05,-370 578.25,-370 578.25,-324.8 705.05,-324.8 705.05,-370"/>
<text text-anchor="start" x="610.9" y="-351.95" font-family="Times,serif" font-size="11.00">Typechecking</text>
<text text-anchor="start" x="596.65" y="-334.35" font-family="Times,serif" font-size="9.00">A Typechecker for STLC</text>
</a>
</g>
</g>
<!-- Stlc&#45;&gt;Typechecking -->
<g id="edge15" class="edge">
<title>Stlc&#45;&gt;Typechecking</title>
<path fill="none" stroke="gray" d="M628.01,-568.13C630.64,-525.66 636.47,-431.77 639.59,-381.57"/>
<polygon fill="gray" stroke="gray" points="643.06,-382.1 640.19,-371.9 636.08,-381.67 643.06,-382.1"/>
</g>
<!-- MoreStlc -->
<g id="node16" class="node">
<title>MoreStlc</title>
<g id="a_node16"><a xlink:href="MoreStlc.html" xlink:title="Go to chapter" target="_top">
<polygon fill="lightblue" stroke="black" points="550.3,-451.2 353,-451.2 353,-406 550.3,-406 550.3,-451.2"/>
<text text-anchor="start" x="431.02" y="-433.15" font-family="Times,serif" font-size="11.00">MoreStlc</text>
<text text-anchor="start" x="371.4" y="-415.55" font-family="Times,serif" font-size="9.00">More on the Simply Typed Lambda&#45;Calculus</text>
</a>
</g>
</g>
<!-- StlcProp&#45;&gt;MoreStlc -->
<g id="edge8" class="edge">
<title>StlcProp&#45;&gt;MoreStlc</title>
<path fill="none" stroke="gray" d="M445.53,-486.74C444.96,-479.36 444.78,-470.96 444.98,-462.91"/>
<polygon fill="gray" stroke="gray" points="448.47,-463.21 445.46,-453.06 441.47,-462.87 448.47,-463.21"/>
</g>
<!-- StlcProp&#45;&gt;MoreStlc -->
<g id="edge38" class="edge">
<title>StlcProp&#45;&gt;MoreStlc</title>
<path fill="none" stroke="blue" d="M457.77,-486.74C458.34,-479.36 458.52,-470.96 458.32,-462.91"/>
<polygon fill="blue" stroke="blue" points="461.83,-462.87 457.84,-453.06 454.83,-463.21 461.83,-462.87"/>
</g>
<!-- MoreStlc&#45;&gt;Typechecking -->
<g id="edge39" class="edge">
<title>MoreStlc&#45;&gt;Typechecking</title>
<path fill="none" stroke="blue" d="M504.58,-405.54C527.44,-396.01 554.37,-384.78 578.28,-374.81"/>
<polygon fill="blue" stroke="blue" points="579.4,-378.14 587.28,-371.06 576.71,-371.68 579.4,-378.14"/>
</g>
<!-- References -->
<g id="node18" class="node">
<title>References</title>
<g id="a_node18"><a xlink:href="References.html" xlink:title="Go to chapter" target="_top">
<polygon fill="lightblue" stroke="black" points="421.17,-370 286.12,-370 286.12,-324.8 421.17,-324.8 421.17,-370"/>
<text text-anchor="start" x="328.15" y="-351.95" font-family="Times,serif" font-size="11.00">References</text>
<text text-anchor="start" x="304.52" y="-334.35" font-family="Times,serif" font-size="9.00">Typing Mutable References</text>
</a>
</g>
</g>
<!-- MoreStlc&#45;&gt;References -->
<g id="edge9" class="edge">
<title>MoreStlc&#45;&gt;References</title>
<path fill="none" stroke="gray" d="M424.35,-405.54C413.63,-396.87 401.16,-386.8 389.71,-377.55"/>
<polygon fill="gray" stroke="gray" points="391.96,-374.86 381.98,-371.29 387.56,-380.3 391.96,-374.86"/>
</g>
<!-- Sub -->
<g id="node19" class="node">
<title>Sub</title>
<g id="a_node19"><a xlink:href="Sub.html" xlink:title="Go to chapter" target="_top">
<polygon fill="lightblue" stroke="black" points="294.42,-288.8 220.87,-288.8 220.87,-243.6 294.42,-243.6 294.42,-288.8"/>
<text text-anchor="start" x="249.4" y="-270.75" font-family="Times,serif" font-size="11.00">Sub</text>
<text text-anchor="start" x="239.27" y="-253.15" font-family="Times,serif" font-size="9.00">Subtyping</text>
</a>
</g>
</g>
<!-- MoreStlc&#45;&gt;Sub -->
<g id="edge14" class="edge">
<title>MoreStlc&#45;&gt;Sub</title>
<path fill="none" stroke="gray" d="M352.95,-414.53C324.66,-406.14 296.21,-392.41 276.65,-370 260.16,-351.11 255.93,-322.67 255.54,-300.48"/>
<polygon fill="gray" stroke="gray" points="259.03,-300.77 255.63,-290.73 252.04,-300.7 259.03,-300.77"/>
</g>
<!-- Records -->
<g id="node20" class="node">
<title>Records</title>
<g id="a_node20"><a xlink:href="Records.html" xlink:title="Go to chapter" target="_top">
<polygon fill="lightblue" stroke="black" points="229.8,-370 101.5,-370 101.5,-324.8 229.8,-324.8 229.8,-370"/>
<text text-anchor="start" x="147.28" y="-351.95" font-family="Times,serif" font-size="11.00">Records</text>
<text text-anchor="start" x="119.9" y="-334.35" font-family="Times,serif" font-size="9.00">Adding Records to STLC</text>
</a>
</g>
</g>
<!-- MoreStlc&#45;&gt;Records -->
<g id="edge12" class="edge">
<title>MoreStlc&#45;&gt;Records</title>
<path fill="none" stroke="gray" d="M371.98,-405.54C330.95,-394.18 281.21,-380.4 240.84,-369.22"/>
<polygon fill="gray" stroke="gray" points="242.02,-365.92 231.45,-366.62 240.15,-372.66 242.02,-365.92"/>
</g>
<!-- Norm -->
<g id="node23" class="node">
<title>Norm</title>
<g id="a_node23"><a xlink:href="Norm.html" xlink:title="Go to chapter" target="_top">
<polygon fill="lightyellow" stroke="black" points="560.05,-370 439.25,-370 439.25,-324.8 560.05,-324.8 560.05,-370"/>
<text text-anchor="start" x="486.9" y="-351.95" font-family="Times,serif" font-size="11.00">Norm</text>
<text text-anchor="start" x="457.65" y="-334.35" font-family="Times,serif" font-size="9.00">Normalization of STLC</text>
</a>
</g>
</g>
<!-- MoreStlc&#45;&gt;Norm -->
<g id="edge17" class="edge">
<title>MoreStlc&#45;&gt;Norm</title>
<path fill="none" stroke="gray" d="M465.02,-405.54C469.81,-397.64 475.3,-388.58 480.48,-380.04"/>
<polygon fill="gray" stroke="gray" points="483.38,-382 485.57,-371.64 477.39,-378.38 483.38,-382"/>
</g>
<!-- Typechecking&#45;&gt;References -->
<g id="edge40" class="edge">
<title>Typechecking&#45;&gt;References</title>
<path fill="none" stroke="blue" d="M604.23,-370.44C590.7,-377.53 574.96,-384.42 559.65,-388 507.72,-400.15 491.69,-399.67 439.65,-388 427.44,-385.26 414.92,-380.59 403.34,-375.36"/>
<polygon fill="blue" stroke="blue" points="404.92,-372.23 394.38,-371.1 401.91,-378.55 404.92,-372.23"/>
</g>
<!-- References&#45;&gt;Sub -->
<g id="edge41" class="edge">
<title>References&#45;&gt;Sub</title>
<path fill="none" stroke="blue" d="M326.91,-324.34C316.4,-315.67 304.19,-305.6 292.98,-296.35"/>
<polygon fill="blue" stroke="blue" points="295.36,-293.77 285.42,-290.11 290.9,-299.17 295.36,-293.77"/>
</g>
<!-- Sub&#45;&gt;Records -->
<g id="edge42" class="edge">
<title>Sub&#45;&gt;Records</title>
<path fill="none" stroke="blue" d="M232.16,-289.14C222.21,-297.71 210.64,-307.67 199.97,-316.85"/>
<polygon fill="blue" stroke="blue" points="197.72,-314.17 192.42,-323.35 202.29,-319.48 197.72,-314.17"/>
</g>
<!-- RecordSub -->
<g id="node21" class="node">
<title>RecordSub</title>
<g id="a_node21"><a xlink:href="RecordSub.html" xlink:title="Go to chapter" target="_top">
<polygon fill="lightblue" stroke="black" points="268.18,-207.6 145.12,-207.6 145.12,-162.4 268.18,-162.4 268.18,-207.6"/>
<text text-anchor="start" x="182.28" y="-189.55" font-family="Times,serif" font-size="11.00">RecordSub</text>
<text text-anchor="start" x="163.53" y="-171.95" font-family="Times,serif" font-size="9.00">Subtyping with Records</text>
</a>
</g>
</g>
<!-- Sub&#45;&gt;RecordSub -->
<g id="edge16" class="edge">
<title>Sub&#45;&gt;RecordSub</title>
<path fill="none" stroke="gray" d="M243.44,-243.14C238.3,-235.16 232.4,-225.98 226.84,-217.36"/>
<polygon fill="gray" stroke="gray" points="229.96,-215.73 221.6,-209.22 224.07,-219.52 229.96,-215.73"/>
</g>
<!-- UseTactics -->
<g id="node27" class="node">
<title>UseTactics</title>
<g id="a_node27"><a xlink:href="UseTactics.html" xlink:title="Go to chapter" target="_top">
<polygon fill="lightyellow" stroke="black" points="508.67,-207.6 310.62,-207.6 310.62,-162.4 508.67,-162.4 508.67,-207.6"/>
<text text-anchor="start" x="384.9" y="-189.55" font-family="Times,serif" font-size="11.00">UseTactics</text>
<text text-anchor="start" x="329.02" y="-171.95" font-family="Times,serif" font-size="9.00">Tactic Library for Coq: A Gentle Introduction</text>
</a>
</g>
</g>
<!-- Sub&#45;&gt;UseTactics -->
<g id="edge21" class="edge">
<title>Sub&#45;&gt;UseTactics</title>
<path fill="none" stroke="gray" d="M294.74,-245.65C296.06,-244.95 297.37,-244.27 298.65,-243.6 317.64,-233.67 338.49,-222.83 356.95,-213.26"/>
<polygon fill="gray" stroke="gray" points="358.31,-216.5 365.58,-208.79 355.09,-210.28 358.31,-216.5"/>
</g>
<!-- Records&#45;&gt;RecordSub -->
<g id="edge13" class="edge">
<title>Records&#45;&gt;RecordSub</title>
<path fill="none" stroke="gray" d="M166.45,-324.43C171.13,-297.15 182.83,-250.37 192.69,-218.83"/>
<polygon fill="gray" stroke="gray" points="195.99,-219.99 195.75,-209.4 189.33,-217.83 195.99,-219.99"/>
</g>
<!-- Records&#45;&gt;RecordSub -->
<g id="edge43" class="edge">
<title>Records&#45;&gt;RecordSub</title>
<path fill="none" stroke="blue" d="M176.08,-324.43C185.31,-297.27 197.45,-250.78 203.75,-219.24"/>
<polygon fill="blue" stroke="blue" points="207.18,-219.92 205.58,-209.45 200.3,-218.63 207.18,-219.92"/>
</g>
<!-- RecordSub&#45;&gt;Postscript -->
<g id="edge44" class="edge">
<title>RecordSub&#45;&gt;Postscript</title>
<path fill="none" stroke="blue" d="M206.65,-161.94C206.65,-153.12 206.65,-142.85 206.65,-133.47"/>
<polygon fill="blue" stroke="blue" points="210.15,-133.74 206.65,-123.74 203.15,-133.74 210.15,-133.74"/>
</g>
<!-- LibTactics -->
<g id="node26" class="node">
<title>LibTactics</title>
<g id="a_node26"><a xlink:href="LibTactics.html" xlink:title="Go to chapter" target="_top">
<polygon fill="none" stroke="black" stroke-dasharray="1,5" points="487.3,-284.2 412,-284.2 412,-248.2 487.3,-248.2 487.3,-284.2"/>
<text text-anchor="middle" x="449.65" y="-262.5" font-family="Times,serif" font-size="11.00">LibTactics</text>
</a>
</g>
</g>
<!-- LibTactics&#45;&gt;UseTactics -->
<g id="edge18" class="edge">
<title>LibTactics&#45;&gt;UseTactics</title>
<path fill="none" stroke="gray" d="M440.97,-248.01C436.57,-239.3 431.08,-228.43 425.93,-218.24"/>
<polygon fill="gray" stroke="gray" points="429.06,-216.68 421.43,-209.33 422.82,-219.83 429.06,-216.68"/>
</g>
<!-- UseAuto -->
<g id="node28" class="node">
<title>UseAuto</title>
<g id="a_node28"><a xlink:href="UseAuto.html" xlink:title="Go to chapter" target="_top">
<polygon fill="lightyellow" stroke="black" points="526.17,-126.4 313.12,-126.4 313.12,-81.2 526.17,-81.2 526.17,-126.4"/>
<text text-anchor="start" x="399.77" y="-108.35" font-family="Times,serif" font-size="11.00">UseAuto</text>
<text text-anchor="start" x="331.52" y="-90.75" font-family="Times,serif" font-size="9.00">Theory and Practice of Automation in Coq Proofs</text>
</a>
</g>
</g>
<!-- LibTactics&#45;&gt;UseAuto -->
<g id="edge19" class="edge">
<title>LibTactics&#45;&gt;UseAuto</title>
<path fill="none" stroke="gray" d="M480.58,-247.72C494.67,-237.93 509.91,-224.3 517.65,-207.6 526.1,-189.37 527.63,-179.84 517.65,-162.4 510.77,-150.37 500.29,-140.61 488.7,-132.77"/>
<polygon fill="gray" stroke="gray" points="490.85,-129.98 480.5,-127.69 487.16,-135.93 490.85,-129.98"/>
</g>
<!-- UseTactics&#45;&gt;UseAuto -->
<g id="edge20" class="edge">
<title>UseTactics&#45;&gt;UseAuto</title>
<path fill="none" stroke="gray" d="M412.44,-161.94C413.37,-154.56 414.43,-146.16 415.44,-138.11"/>
<polygon fill="gray" stroke="gray" points="418.91,-138.6 416.69,-128.24 411.96,-137.73 418.91,-138.6"/>
</g>
</g>
</svg>
