<?xml version="1.0" encoding="UTF-8" standalone="no"?>
<?xml-stylesheet href="common/css/sf.css" type="text/css"?>
<!DOCTYPE svg PUBLIC "-//W3C//DTD SVG 1.1//EN"
 "http://www.w3.org/Graphics/SVG/1.1/DTD/svg11.dtd">
<!-- Generated by graphviz version 2.43.0 (0)
 -->
<!-- Pages: 1 -->
<svg width="576pt" height="954pt"
 viewBox="0.00 21.60 576.00 932.46" xmlns="http://www.w3.org/2000/svg" xmlns:xlink="http://www.w3.org/1999/xlink">
<g id="graph0" class="graph deps" transform="scale(1.06 1.06) rotate(0) translate(4 985.93)">
<polygon fill="white" stroke="transparent" points="-4,4 -4,-963 607.5,-963 607.5,4 -4,4"/>
<g id="clust1" class="cluster deps">
<title>cluster_Chargueraud</title>
<polygon fill="none" stroke="#595959" points="201,-72 201,-288 435,-288 435,-72 201,-72"/>
</g>
<!-- LogicalFoundations -->
<g id="node1" class="node">
<title>LogicalFoundations</title>
<g id="a_node1"><a xlink:title="Go to chapter" target="_top">
<polygon fill="none" stroke="black" stroke-dasharray="1,5" points="309,-933.5 143,-933.5 143,-897.5 309,-897.5 309,-933.5"/>
<text text-anchor="start" x="161" y="-912.7" font-family="Times,serif" font-size="11.00"> &#160;&#160;&#160;&#160;Logical Foundations &#160;&#160;&#160;&#160;&#160;&#160;&#160;</text>
</a>
</g>
</g>
<!-- Preface -->
<g id="node3" class="node">
<title>Preface</title>
<g id="a_node3"><a xlink:href="Preface.html" xlink:title="Go to chapter" target="_top">
<polygon fill="lightblue" stroke="black" points="257.5,-836 194.5,-836 194.5,-800 257.5,-800 257.5,-836"/>
<text text-anchor="middle" x="226" y="-815.2" font-family="Times,serif" font-size="11.00">Preface</text>
</a>
</g>
</g>
<!-- LogicalFoundations&#45;&gt;Preface -->
<g id="edge24" class="edge">
<title>LogicalFoundations&#45;&gt;Preface</title>
<path fill="none" stroke="gray" d="M220.68,-897.43C219.12,-883.26 218.84,-862.83 219.83,-846.38"/>
<polygon fill="gray" stroke="gray" points="223.33,-846.5 220.67,-836.25 216.35,-845.93 223.33,-846.5"/>
</g>
<!-- LogicalFoundations&#45;&gt;Preface -->
<g id="edge26" class="edge">
<title>LogicalFoundations&#45;&gt;Preface</title>
<path fill="none" stroke="blue" d="M231.32,-897.43C232.88,-883.26 233.16,-862.83 232.17,-846.38"/>
<polygon fill="blue" stroke="blue" points="235.65,-845.93 231.33,-836.25 228.67,-846.5 235.65,-845.93"/>
</g>
<!-- legend -->
<g id="node2" class="node">
<title>legend</title>
<g id="a_node2"><a xlink:title="Go to chapter" target="_top">
<polygon fill="WhiteSmoke" stroke="transparent" points="580.5,-959 371.5,-959 371.5,-872 580.5,-872 580.5,-959"/>
<polygon fill="lightblue" stroke="transparent" points="376,-921.5 376,-954.5 459,-954.5 459,-921.5 376,-921.5"/>
<polygon fill="none" stroke="#7f7f7f" points="376,-921.5 376,-954.5 459,-954.5 459,-921.5 376,-921.5"/>
<text text-anchor="start" x="387" y="-935.5" font-family="Times,serif" font-size="10.00"> Core chapters </text>
<polygon fill="lightyellow" stroke="transparent" points="469,-921.5 469,-954.5 577,-954.5 577,-921.5 469,-921.5"/>
<polygon fill="none" stroke="#7f7f7f" points="469,-921.5 469,-954.5 577,-954.5 577,-921.5 469,-921.5"/>
<text text-anchor="start" x="480" y="-935.5" font-family="Times,serif" font-size="10.00">Contributed chapters</text>
<text text-anchor="start" x="381" y="-905.5" font-family="Times,serif" font-size="10.00" fill="gray">⟶</text>
<text text-anchor="start" x="396" y="-905.5" font-family="Times,serif" font-size="10.00"> &#160;&#160;&#160;&#160;Chapter dependencies</text>
<text text-anchor="start" x="381" y="-884.5" font-family="Times,serif" font-size="10.00" fill="blue">⟶</text>
<text text-anchor="start" x="396" y="-884.5" font-family="Times,serif" font-size="10.00"> &#160;&#160;&#160;&#160;Recommended path for semester course</text>
</a>
</g>
</g>
<!-- Equiv -->
<g id="node6" class="node">
<title>Equiv</title>
<g id="a_node6"><a xlink:href="Equiv.html" xlink:title="Go to chapter" target="_top">
<polygon fill="lightblue" stroke="black" points="134,-764 22,-764 22,-720 134,-720 134,-764"/>
<text text-anchor="start" x="65" y="-747.2" font-family="Times,serif" font-size="11.00">Equiv</text>
<text text-anchor="start" x="40" y="-730.8" font-family="Times,serif" font-size="9.00">Program Equivalence</text>
</a>
</g>
</g>
<!-- Preface&#45;&gt;Equiv -->
<g id="edge22" class="edge">
<title>Preface&#45;&gt;Equiv</title>
<path fill="none" stroke="gray" d="M194.22,-803.77C173.39,-794.04 145.96,-780.52 122.93,-768.7"/>
<polygon fill="gray" stroke="gray" points="124.51,-765.57 114.02,-764.09 121.3,-771.79 124.51,-765.57"/>
</g>
<!-- Preface&#45;&gt;Equiv -->
<g id="edge27" class="edge">
<title>Preface&#45;&gt;Equiv</title>
<path fill="none" stroke="blue" d="M197.47,-799.84C179.87,-790.54 156.74,-778.87 135.5,-768.52"/>
<polygon fill="blue" stroke="blue" points="136.75,-765.24 126.22,-764.03 133.7,-771.54 136.75,-765.24"/>
</g>
<!-- Hoare -->
<g id="node7" class="node">
<title>Hoare</title>
<g id="a_node7"><a xlink:href="Hoare.html" xlink:title="Go to chapter" target="_top">
<polygon fill="lightblue" stroke="black" points="300,-764 152,-764 152,-720 300,-720 300,-764"/>
<text text-anchor="start" x="212" y="-747.2" font-family="Times,serif" font-size="11.00">Hoare</text>
<text text-anchor="start" x="170" y="-730.8" font-family="Times,serif" font-size="9.00">Hoare Logic (Part I, First Half)</text>
</a>
</g>
</g>
<!-- Preface&#45;&gt;Hoare -->
<g id="edge23" class="edge">
<title>Preface&#45;&gt;Hoare</title>
<path fill="none" stroke="gray" d="M226,-799.84C226,-792.16 226,-782.88 226,-774.05"/>
<polygon fill="gray" stroke="gray" points="229.5,-774.03 226,-764.03 222.5,-774.03 229.5,-774.03"/>
</g>
<!-- Smallstep -->
<g id="node11" class="node">
<title>Smallstep</title>
<g id="a_node11"><a xlink:href="Smallstep.html" xlink:title="Go to chapter" target="_top">
<polygon fill="lightblue" stroke="black" points="479.5,-764 322.5,-764 322.5,-720 479.5,-720 479.5,-764"/>
<text text-anchor="start" x="379.5" y="-747.2" font-family="Times,serif" font-size="11.00">Smallstep</text>
<text text-anchor="start" x="341" y="-730.8" font-family="Times,serif" font-size="9.00">Small&#45;Step Operational Semantics</text>
</a>
</g>
</g>
<!-- Preface&#45;&gt;Smallstep -->
<g id="edge21" class="edge">
<title>Preface&#45;&gt;Smallstep</title>
<path fill="none" stroke="gray" d="M257.69,-803.6C281.05,-793.72 313.53,-779.99 341.65,-768.1"/>
<polygon fill="gray" stroke="gray" points="343.16,-771.26 351.01,-764.14 340.43,-764.81 343.16,-771.26"/>
</g>
<!-- Postscript -->
<g id="node4" class="node">
<title>Postscript</title>
<g id="a_node4"><a xlink:href="Postscript.html" xlink:title="Go to chapter" target="_top">
<polygon fill="lightblue" stroke="black" points="141,-120 69,-120 69,-84 141,-84 141,-120"/>
<text text-anchor="middle" x="105" y="-99.2" font-family="Times,serif" font-size="11.00">Postscript</text>
</a>
</g>
</g>
<!-- Bib -->
<g id="node5" class="node">
<title>Bib</title>
<g id="a_node5"><a xlink:href="Bib.html" xlink:title="Go to chapter" target="_top">
<polygon fill="lightblue" stroke="black" points="146.5,-44 63.5,-44 63.5,0 146.5,0 146.5,-44"/>
<text text-anchor="start" x="97.5" y="-27.2" font-family="Times,serif" font-size="11.00">Bib</text>
<text text-anchor="start" x="82" y="-10.8" font-family="Times,serif" font-size="9.00">Bibliography</text>
</a>
</g>
</g>
<!-- Postscript&#45;&gt;Bib -->
<g id="edge25" class="edge">
<title>Postscript&#45;&gt;Bib</title>
<path fill="none" stroke="gray" d="M105,-83.69C105,-75.03 105,-64.28 105,-54.24"/>
<polygon fill="gray" stroke="gray" points="108.5,-54.15 105,-44.15 101.5,-54.15 108.5,-54.15"/>
</g>
<!-- Equiv&#45;&gt;Hoare -->
<g id="edge28" class="edge">
<title>Equiv&#45;&gt;Hoare</title>
<path fill="none" stroke="blue" d="M134.08,-742C136.55,-742 139.03,-742 141.5,-742"/>
<polygon fill="blue" stroke="blue" points="141.67,-745.5 151.67,-742 141.67,-738.5 141.67,-745.5"/>
</g>
<!-- PE -->
<g id="node21" class="node">
<title>PE</title>
<g id="a_node21"><a xlink:href="PE.html" xlink:title="Go to chapter" target="_top">
<polygon fill="lightyellow" stroke="black" points="127.5,-684 28.5,-684 28.5,-640 127.5,-640 127.5,-684"/>
<text text-anchor="start" x="72" y="-667.2" font-family="Times,serif" font-size="11.00">PE</text>
<text text-anchor="start" x="47" y="-650.8" font-family="Times,serif" font-size="9.00">Partial Evaluation</text>
</a>
</g>
</g>
<!-- Equiv&#45;&gt;PE -->
<g id="edge20" class="edge">
<title>Equiv&#45;&gt;PE</title>
<path fill="none" stroke="gray" d="M78,-719.69C78,-711.8 78,-702.68 78,-694.1"/>
<polygon fill="gray" stroke="gray" points="81.5,-694.02 78,-684.02 74.5,-694.02 81.5,-694.02"/>
</g>
<!-- Hoare1 -->
<g id="node8" class="node">
<title>Hoare1</title>
<g id="a_node8"><a xlink:href="Hoare1.html" xlink:title="Go to chapter" target="_top">
<polygon fill="lightblue" stroke="black" points="304.5,-684 147.5,-684 147.5,-640 304.5,-640 304.5,-684"/>
<text text-anchor="start" x="209.5" y="-667.2" font-family="Times,serif" font-size="11.00">Hoare1</text>
<text text-anchor="start" x="166" y="-650.8" font-family="Times,serif" font-size="9.00">Hoare Logic (Part I, Second Half)</text>
</a>
</g>
</g>
<!-- Hoare&#45;&gt;Hoare1 -->
<g id="edge1" class="edge">
<title>Hoare&#45;&gt;Hoare1</title>
<path fill="none" stroke="gray" d="M219.91,-719.69C219.28,-711.8 219.1,-702.68 219.37,-694.1"/>
<polygon fill="gray" stroke="gray" points="222.87,-694.2 219.93,-684.02 215.89,-693.81 222.87,-694.2"/>
</g>
<!-- Hoare&#45;&gt;Hoare1 -->
<g id="edge29" class="edge">
<title>Hoare&#45;&gt;Hoare1</title>
<path fill="none" stroke="blue" d="M232.09,-719.69C232.72,-711.8 232.9,-702.68 232.63,-694.1"/>
<polygon fill="blue" stroke="blue" points="236.11,-693.81 232.07,-684.02 229.13,-694.2 236.11,-693.81"/>
</g>
<!-- Hoare2 -->
<g id="node9" class="node">
<title>Hoare2</title>
<g id="a_node9"><a xlink:href="Hoare2.html" xlink:title="Go to chapter" target="_top">
<polygon fill="lightblue" stroke="black" points="291,-604 179,-604 179,-560 291,-560 291,-604"/>
<text text-anchor="start" x="218" y="-587.2" font-family="Times,serif" font-size="11.00">Hoare2</text>
<text text-anchor="start" x="197" y="-570.8" font-family="Times,serif" font-size="9.00">Hoare Logic (Part II)</text>
</a>
</g>
</g>
<!-- Hoare1&#45;&gt;Hoare2 -->
<g id="edge2" class="edge">
<title>Hoare1&#45;&gt;Hoare2</title>
<path fill="none" stroke="gray" d="M222.37,-639.69C222.65,-631.8 223.52,-622.68 224.79,-614.1"/>
<polygon fill="gray" stroke="gray" points="228.27,-614.46 226.51,-604.02 221.37,-613.29 228.27,-614.46"/>
</g>
<!-- Hoare1&#45;&gt;Hoare2 -->
<g id="edge30" class="edge">
<title>Hoare1&#45;&gt;Hoare2</title>
<path fill="none" stroke="blue" d="M234.55,-639.69C236.09,-631.8 237.32,-622.68 238.04,-614.1"/>
<polygon fill="blue" stroke="blue" points="241.54,-614.21 238.64,-604.02 234.55,-613.79 241.54,-614.21"/>
</g>
<!-- HoareAsLogic -->
<g id="node10" class="node">
<title>HoareAsLogic</title>
<g id="a_node10"><a xlink:href="HoareAsLogic.html" xlink:title="Go to chapter" target="_top">
<polygon fill="lightblue" stroke="black" points="160.5,-604 41.5,-604 41.5,-560 160.5,-560 160.5,-604"/>
<text text-anchor="start" x="68" y="-587.2" font-family="Times,serif" font-size="11.00">HoareAsLogic</text>
<text text-anchor="start" x="60" y="-570.8" font-family="Times,serif" font-size="9.00">Hoare Logic as a Logic</text>
</a>
</g>
</g>
<!-- Hoare1&#45;&gt;HoareAsLogic -->
<g id="edge9" class="edge">
<title>Hoare1&#45;&gt;HoareAsLogic</title>
<path fill="none" stroke="gray" d="M192.17,-639.89C177.17,-630.53 159.34,-619.41 143.45,-609.49"/>
<polygon fill="gray" stroke="gray" points="145.19,-606.45 134.85,-604.12 141.48,-612.39 145.19,-606.45"/>
</g>
<!-- Hoare2&#45;&gt;Smallstep -->
<g id="edge31" class="edge">
<title>Hoare2&#45;&gt;Smallstep</title>
<path fill="none" stroke="blue" d="M267.84,-604.13C282.57,-614.24 299.79,-626.97 314,-640 320.83,-646.27 353.18,-684.24 376.43,-711.78"/>
<polygon fill="blue" stroke="blue" points="373.9,-714.2 383.02,-719.59 379.25,-709.69 373.9,-714.2"/>
</g>
<!-- RelHoare -->
<g id="node23" class="node">
<title>RelHoare</title>
<g id="a_node23"><a xlink:href="RelHoare.html" xlink:title="Go to chapter" target="_top">
<polygon fill="lightyellow" stroke="black" points="294,-524 176,-524 176,-480 294,-480 294,-524"/>
<text text-anchor="start" x="213" y="-507.2" font-family="Times,serif" font-size="11.00">RelHoare</text>
<text text-anchor="start" x="194" y="-490.8" font-family="Times,serif" font-size="9.00">Relational Hoare Logic</text>
</a>
</g>
</g>
<!-- Hoare2&#45;&gt;RelHoare -->
<g id="edge3" class="edge">
<title>Hoare2&#45;&gt;RelHoare</title>
<path fill="none" stroke="gray" d="M235,-559.69C235,-551.8 235,-542.68 235,-534.1"/>
<polygon fill="gray" stroke="gray" points="238.5,-534.02 235,-524.02 231.5,-534.02 238.5,-534.02"/>
</g>
<!-- Types -->
<g id="node12" class="node">
<title>Types</title>
<g id="a_node12"><a xlink:href="Types.html" xlink:title="Go to chapter" target="_top">
<polygon fill="lightblue" stroke="black" points="448.5,-684 361.5,-684 361.5,-640 448.5,-640 448.5,-684"/>
<text text-anchor="start" x="392" y="-667.2" font-family="Times,serif" font-size="11.00">Types</text>
<text text-anchor="start" x="380" y="-650.8" font-family="Times,serif" font-size="9.00">Type Systems</text>
</a>
</g>
</g>
<!-- Smallstep&#45;&gt;Types -->
<g id="edge4" class="edge">
<title>Smallstep&#45;&gt;Types</title>
<path fill="none" stroke="gray" d="M396,-719.69C395.78,-711.8 396.07,-702.68 396.78,-694.1"/>
<polygon fill="gray" stroke="gray" points="400.27,-694.33 397.86,-684.02 393.31,-693.59 400.27,-694.33"/>
</g>
<!-- Smallstep&#45;&gt;Types -->
<g id="edge32" class="edge">
<title>Smallstep&#45;&gt;Types</title>
<path fill="none" stroke="blue" d="M408.18,-719.69C409.22,-711.8 409.86,-702.68 410.03,-694.1"/>
<polygon fill="blue" stroke="blue" points="413.53,-694 409.99,-684.02 406.53,-694.03 413.53,-694"/>
</g>
<!-- Stlc -->
<g id="node13" class="node">
<title>Stlc</title>
<g id="a_node13"><a xlink:href="Stlc.html" xlink:title="Go to chapter" target="_top">
<polygon fill="lightblue" stroke="black" points="488.5,-604 321.5,-604 321.5,-560 488.5,-560 488.5,-604"/>
<text text-anchor="start" x="396.5" y="-587.2" font-family="Times,serif" font-size="11.00">Stlc</text>
<text text-anchor="start" x="340" y="-570.8" font-family="Times,serif" font-size="9.00">The Simply Typed Lambda&#45;Calculus</text>
</a>
</g>
</g>
<!-- Types&#45;&gt;Stlc -->
<g id="edge5" class="edge">
<title>Types&#45;&gt;Stlc</title>
<path fill="none" stroke="gray" d="M398.91,-639.69C398.28,-631.8 398.1,-622.68 398.37,-614.1"/>
<polygon fill="gray" stroke="gray" points="401.87,-614.2 398.93,-604.02 394.89,-613.81 401.87,-614.2"/>
</g>
<!-- Types&#45;&gt;Stlc -->
<g id="edge33" class="edge">
<title>Types&#45;&gt;Stlc</title>
<path fill="none" stroke="blue" d="M411.09,-639.69C411.72,-631.8 411.9,-622.68 411.63,-614.1"/>
<polygon fill="blue" stroke="blue" points="415.11,-613.81 411.07,-604.02 408.13,-614.2 415.11,-613.81"/>
</g>
<!-- StlcProp -->
<g id="node14" class="node">
<title>StlcProp</title>
<g id="a_node14"><a xlink:href="StlcProp.html" xlink:title="Go to chapter" target="_top">
<polygon fill="lightblue" stroke="black" points="439,-524 333,-524 333,-480 439,-480 439,-524"/>
<text text-anchor="start" x="367" y="-507.2" font-family="Times,serif" font-size="11.00">StlcProp</text>
<text text-anchor="start" x="351" y="-490.8" font-family="Times,serif" font-size="9.00">Properties of STLC</text>
</a>
</g>
</g>
<!-- Stlc&#45;&gt;StlcProp -->
<g id="edge6" class="edge">
<title>Stlc&#45;&gt;StlcProp</title>
<path fill="none" stroke="gray" d="M393.72,-559.69C391.17,-551.8 388.77,-542.68 386.95,-534.1"/>
<polygon fill="gray" stroke="gray" points="390.34,-533.2 385.05,-524.02 383.46,-534.49 390.34,-533.2"/>
</g>
<!-- Stlc&#45;&gt;StlcProp -->
<g id="edge34" class="edge">
<title>Stlc&#45;&gt;StlcProp</title>
<path fill="none" stroke="blue" d="M405.9,-559.69C404.59,-551.71 402.52,-542.48 400.12,-533.82"/>
<polygon fill="blue" stroke="blue" points="403.41,-532.59 397.19,-524.02 396.7,-534.6 403.41,-532.59"/>
</g>
<!-- Typechecking -->
<g id="node16" class="node">
<title>Typechecking</title>
<g id="a_node16"><a xlink:href="Typechecking.html" xlink:title="Go to chapter" target="_top">
<polygon fill="lightblue" stroke="black" points="603.5,-364 476.5,-364 476.5,-320 603.5,-320 603.5,-364"/>
<text text-anchor="start" x="509.5" y="-347.2" font-family="Times,serif" font-size="11.00">Typechecking</text>
<text text-anchor="start" x="495" y="-330.8" font-family="Times,serif" font-size="9.00">A Typechecker for STLC</text>
</a>
</g>
</g>
<!-- Stlc&#45;&gt;Typechecking -->
<g id="edge13" class="edge">
<title>Stlc&#45;&gt;Typechecking</title>
<path fill="none" stroke="gray" d="M421.98,-559.8C430.17,-549.27 439.93,-536.2 448,-524 470.62,-489.78 475.26,-480.48 494,-444 505.96,-420.73 518.17,-393.73 527,-373.51"/>
<polygon fill="gray" stroke="gray" points="530.29,-374.73 531.05,-364.17 523.86,-371.95 530.29,-374.73"/>
</g>
<!-- MoreStlc -->
<g id="node15" class="node">
<title>MoreStlc</title>
<g id="a_node15"><a xlink:href="MoreStlc.html" xlink:title="Go to chapter" target="_top">
<polygon fill="lightblue" stroke="black" points="484.5,-444 287.5,-444 287.5,-400 484.5,-400 484.5,-444"/>
<text text-anchor="start" x="365.5" y="-427.2" font-family="Times,serif" font-size="11.00">MoreStlc</text>
<text text-anchor="start" x="306" y="-410.8" font-family="Times,serif" font-size="9.00">More on the Simply Typed Lambda&#45;Calculus</text>
</a>
</g>
</g>
<!-- StlcProp&#45;&gt;MoreStlc -->
<g id="edge7" class="edge">
<title>StlcProp&#45;&gt;MoreStlc</title>
<path fill="none" stroke="gray" d="M379.91,-479.69C379.28,-471.8 379.1,-462.68 379.37,-454.1"/>
<polygon fill="gray" stroke="gray" points="382.87,-454.2 379.93,-444.02 375.89,-453.81 382.87,-454.2"/>
</g>
<!-- StlcProp&#45;&gt;MoreStlc -->
<g id="edge35" class="edge">
<title>StlcProp&#45;&gt;MoreStlc</title>
<path fill="none" stroke="blue" d="M392.09,-479.69C392.72,-471.8 392.9,-462.68 392.63,-454.1"/>
<polygon fill="blue" stroke="blue" points="396.11,-453.81 392.07,-444.02 389.13,-454.2 396.11,-453.81"/>
</g>
<!-- MoreStlc&#45;&gt;Typechecking -->
<g id="edge36" class="edge">
<title>MoreStlc&#45;&gt;Typechecking</title>
<path fill="none" stroke="blue" d="M427.67,-399.89C446.68,-390.27 469.34,-378.79 489.32,-368.67"/>
<polygon fill="blue" stroke="blue" points="490.95,-371.77 498.29,-364.12 487.79,-365.52 490.95,-371.77"/>
</g>
<!-- References -->
<g id="node17" class="node">
<title>References</title>
<g id="a_node17"><a xlink:href="References.html" xlink:title="Go to chapter" target="_top">
<polygon fill="lightblue" stroke="black" points="319.5,-364 184.5,-364 184.5,-320 319.5,-320 319.5,-364"/>
<text text-anchor="start" x="226.5" y="-347.2" font-family="Times,serif" font-size="11.00">References</text>
<text text-anchor="start" x="203" y="-330.8" font-family="Times,serif" font-size="9.00">Typing Mutable References</text>
</a>
</g>
</g>
<!-- MoreStlc&#45;&gt;References -->
<g id="edge8" class="edge">
<title>MoreStlc&#45;&gt;References</title>
<path fill="none" stroke="gray" d="M349.74,-399.89C333.5,-390.44 314.19,-379.2 297.04,-369.22"/>
<polygon fill="gray" stroke="gray" points="298.69,-366.13 288.29,-364.12 295.17,-372.18 298.69,-366.13"/>
</g>
<!-- Sub -->
<g id="node18" class="node">
<title>Sub</title>
<g id="a_node18"><a xlink:href="Sub.html" xlink:title="Go to chapter" target="_top">
<polygon fill="lightblue" stroke="black" points="192.5,-284 119.5,-284 119.5,-240 192.5,-240 192.5,-284"/>
<text text-anchor="start" x="148" y="-267.2" font-family="Times,serif" font-size="11.00">Sub</text>
<text text-anchor="start" x="138" y="-250.8" font-family="Times,serif" font-size="9.00">Subtyping</text>
</a>
</g>
</g>
<!-- MoreStlc&#45;&gt;Sub -->
<g id="edge12" class="edge">
<title>MoreStlc&#45;&gt;Sub</title>
<path fill="none" stroke="gray" d="M287.4,-404.53C240.75,-394.76 191.81,-380.96 176,-364 158.71,-345.47 154.44,-316.48 154.07,-294.3"/>
<polygon fill="gray" stroke="gray" points="157.57,-294.07 154.16,-284.04 150.57,-294.01 157.57,-294.07"/>
</g>
<!-- Records -->
<g id="node19" class="node">
<title>Records</title>
<g id="a_node19"><a xlink:href="Records.html" xlink:title="Go to chapter" target="_top">
<polygon fill="lightblue" stroke="black" points="128,-364 0,-364 0,-320 128,-320 128,-364"/>
<text text-anchor="start" x="45.5" y="-347.2" font-family="Times,serif" font-size="11.00">Records</text>
<text text-anchor="start" x="18" y="-330.8" font-family="Times,serif" font-size="9.00">Adding Records to STLC</text>
</a>
</g>
</g>
<!-- MoreStlc&#45;&gt;Records -->
<g id="edge10" class="edge">
<title>MoreStlc&#45;&gt;Records</title>
<path fill="none" stroke="gray" d="M292.55,-399.94C247.04,-389.49 191.57,-376.46 142,-364 140.74,-363.68 139.46,-363.36 138.18,-363.04"/>
<polygon fill="gray" stroke="gray" points="138.79,-359.58 128.23,-360.48 137.04,-366.36 138.79,-359.58"/>
</g>
<!-- Norm -->
<g id="node22" class="node">
<title>Norm</title>
<g id="a_node22"><a xlink:href="Norm.html" xlink:title="Go to chapter" target="_top">
<polygon fill="lightyellow" stroke="black" points="458.5,-364 337.5,-364 337.5,-320 458.5,-320 458.5,-364"/>
<text text-anchor="start" x="385.5" y="-347.2" font-family="Times,serif" font-size="11.00">Norm</text>
<text text-anchor="start" x="356" y="-330.8" font-family="Times,serif" font-size="9.00">Normalization of STLC</text>
</a>
</g>
</g>
<!-- MoreStlc&#45;&gt;Norm -->
<g id="edge15" class="edge">
<title>MoreStlc&#45;&gt;Norm</title>
<path fill="none" stroke="gray" d="M389.28,-399.69C390.49,-391.8 391.89,-382.68 393.21,-374.1"/>
<polygon fill="gray" stroke="gray" points="396.71,-374.43 394.77,-364.02 389.79,-373.37 396.71,-374.43"/>
</g>
<!-- Typechecking&#45;&gt;References -->
<g id="edge37" class="edge">
<title>Typechecking&#45;&gt;References</title>
<path fill="none" stroke="blue" d="M504.24,-364.06C490.6,-371.27 474.58,-378.36 459,-382 406.63,-394.23 390.51,-393.61 338,-382 324.93,-379.11 311.49,-374.02 299.23,-368.42"/>
<polygon fill="blue" stroke="blue" points="300.65,-365.22 290.12,-364.07 297.63,-371.54 300.65,-365.22"/>
</g>
<!-- References&#45;&gt;Sub -->
<g id="edge38" class="edge">
<title>References&#45;&gt;Sub</title>
<path fill="none" stroke="blue" d="M226.02,-319.89C214.92,-310.87 201.82,-300.23 189.97,-290.6"/>
<polygon fill="blue" stroke="blue" points="191.97,-287.71 182,-284.12 187.55,-293.15 191.97,-287.71"/>
</g>
<!-- Sub&#45;&gt;Records -->
<g id="edge39" class="edge">
<title>Sub&#45;&gt;Records</title>
<path fill="none" stroke="blue" d="M131.21,-284.02C120.72,-292.91 108.35,-303.4 97.09,-312.94"/>
<polygon fill="blue" stroke="blue" points="94.5,-310.55 89.14,-319.69 99.03,-315.89 94.5,-310.55"/>
</g>
<!-- RecordSub -->
<g id="node20" class="node">
<title>RecordSub</title>
<g id="a_node20"><a xlink:href="RecordSub.html" xlink:title="Go to chapter" target="_top">
<polygon fill="lightblue" stroke="black" points="166.5,-204 43.5,-204 43.5,-160 166.5,-160 166.5,-204"/>
<text text-anchor="start" x="81" y="-187.2" font-family="Times,serif" font-size="11.00">RecordSub</text>
<text text-anchor="start" x="62" y="-170.8" font-family="Times,serif" font-size="9.00">Subtyping with Records</text>
</a>
</g>
</g>
<!-- Sub&#45;&gt;RecordSub -->
<g id="edge14" class="edge">
<title>Sub&#45;&gt;RecordSub</title>
<path fill="none" stroke="gray" d="M142.06,-239.69C136.57,-231.28 130.16,-221.48 124.23,-212.41"/>
<polygon fill="gray" stroke="gray" points="127.14,-210.47 118.74,-204.02 121.29,-214.3 127.14,-210.47"/>
</g>
<!-- UseTactics -->
<g id="node25" class="node">
<title>UseTactics</title>
<g id="a_node25"><a xlink:href="UseTactics.html" xlink:title="Go to chapter" target="_top">
<polygon fill="lightyellow" stroke="black" points="407,-204 209,-204 209,-160 407,-160 407,-204"/>
<text text-anchor="start" x="283" y="-187.2" font-family="Times,serif" font-size="11.00">UseTactics</text>
<text text-anchor="start" x="227" y="-170.8" font-family="Times,serif" font-size="9.00">Tactic Library for Coq: A Gentle Introduction</text>
</a>
</g>
</g>
<!-- Sub&#45;&gt;UseTactics -->
<g id="edge19" class="edge">
<title>Sub&#45;&gt;UseTactics</title>
<path fill="none" stroke="gray" d="M192.79,-242.12C212.4,-232.06 236.8,-219.54 258.08,-208.61"/>
<polygon fill="gray" stroke="gray" points="259.7,-211.72 266.99,-204.04 256.5,-205.49 259.7,-211.72"/>
</g>
<!-- Records&#45;&gt;RecordSub -->
<g id="edge11" class="edge">
<title>Records&#45;&gt;RecordSub</title>
<path fill="none" stroke="gray" d="M64.74,-319.69C69.46,-292.4 81.55,-244.93 91.55,-213.73"/>
<polygon fill="gray" stroke="gray" points="94.88,-214.82 94.71,-204.22 88.24,-212.61 94.88,-214.82"/>
</g>
<!-- Records&#45;&gt;RecordSub -->
<g id="edge40" class="edge">
<title>Records&#45;&gt;RecordSub</title>
<path fill="none" stroke="blue" d="M74.32,-319.69C83.72,-292.52 96.2,-245.34 102.42,-214.14"/>
<polygon fill="blue" stroke="blue" points="105.88,-214.7 104.27,-204.22 98.99,-213.41 105.88,-214.7"/>
</g>
<!-- RecordSub&#45;&gt;Postscript -->
<g id="edge41" class="edge">
<title>RecordSub&#45;&gt;Postscript</title>
<path fill="none" stroke="blue" d="M105,-159.69C105,-150.64 105,-139.99 105,-130.37"/>
<polygon fill="blue" stroke="blue" points="108.5,-130.09 105,-120.09 101.5,-130.09 108.5,-130.09"/>
</g>
<!-- LibTactics -->
<g id="node24" class="node">
<title>LibTactics</title>
<g id="a_node24"><a xlink:href="LibTactics.html" xlink:title="Go to chapter" target="_top">
<polygon fill="none" stroke="black" stroke-dasharray="1,5" points="386.5,-280 311.5,-280 311.5,-244 386.5,-244 386.5,-280"/>
<text text-anchor="middle" x="349" y="-259.2" font-family="Times,serif" font-size="11.00">LibTactics</text>
</a>
</g>
</g>
<!-- LibTactics&#45;&gt;UseTactics -->
<g id="edge16" class="edge">
<title>LibTactics&#45;&gt;UseTactics</title>
<path fill="none" stroke="gray" d="M339.9,-243.69C335.2,-234.76 329.34,-223.59 323.92,-213.29"/>
<polygon fill="gray" stroke="gray" points="326.87,-211.38 319.12,-204.15 320.67,-214.63 326.87,-211.38"/>
</g>
<!-- UseAuto -->
<g id="node26" class="node">
<title>UseAuto</title>
<g id="a_node26"><a xlink:href="UseAuto.html" xlink:title="Go to chapter" target="_top">
<polygon fill="lightyellow" stroke="black" points="424.5,-124 211.5,-124 211.5,-80 424.5,-80 424.5,-124"/>
<text text-anchor="start" x="298.5" y="-107.2" font-family="Times,serif" font-size="11.00">UseAuto</text>
<text text-anchor="start" x="230" y="-90.8" font-family="Times,serif" font-size="9.00">Theory and Practice of Automation in Coq Proofs</text>
</a>
</g>
</g>
<!-- LibTactics&#45;&gt;UseAuto -->
<g id="edge17" class="edge">
<title>LibTactics&#45;&gt;UseAuto</title>
<path fill="none" stroke="gray" d="M379.13,-243.92C393.11,-234.2 408.31,-220.64 416,-204 424.2,-186.25 425.75,-176.95 416,-160 408.7,-147.32 397.38,-137.19 384.98,-129.21"/>
<polygon fill="gray" stroke="gray" points="386.65,-126.13 376.27,-124.02 383.07,-132.14 386.65,-126.13"/>
</g>
<!-- UseTactics&#45;&gt;UseAuto -->
<g id="edge18" class="edge">
<title>UseTactics&#45;&gt;UseAuto</title>
<path fill="none" stroke="gray" d="M310.73,-159.69C311.74,-151.8 312.91,-142.68 314.01,-134.1"/>
<polygon fill="gray" stroke="gray" points="317.51,-134.38 315.31,-124.02 310.56,-133.49 317.51,-134.38"/>
</g>
</g>
</svg>
